<?xml version="1.0" encoding="UTF-8"?>
<svg version="1.1" xmlns="http://www.w3.org/2000/svg" width="626" height="365">
<path d="M0 0 C206.58 0 413.16 0 626 0 C626 120.45 626 240.9 626 365 C419.42 365 212.84 365 0 365 C0 244.55 0 124.1 0 0 Z " fill="#3EA9B9" transform="translate(0,0)"/>
<path d="M0 0 C0.33 0 0.66 0 1 0 C1.06993164 0.61182129 1.13986328 1.22364258 1.21191406 1.85400391 C3.55821323 22.1144104 6.4292435 41.7254918 12.4375 61.25 C12.80891113 62.46389404 13.18032227 63.67778809 13.56298828 64.9284668 C15.56451137 71.22388921 17.81882818 77.11337939 20.92626953 82.94799805 C22 85 22 85 23.4375 88.5625 C25.12513825 92.27530414 27.18247147 95.44554477 29.5 98.7890625 C30.52750578 100.30356321 31.49971111 101.85664761 32.421875 103.4375 C35.44112018 108.34003672 39.26802824 112.63024627 43 117 C43.54527344 117.64453125 44.09054688 118.2890625 44.65234375 118.953125 C58.01133388 133.50184707 78.32063328 140.32071916 97.609375 141.28515625 C115.73600141 141.80615437 134.47637924 138.62628651 151 131 C152.53972305 130.37218856 154.08306741 129.75322321 155.62890625 129.140625 C158.94049759 127.8234397 162.24615087 126.49435237 165.54296875 125.140625 C185.31718391 117.06216052 205.29259851 110.25754952 226 105 C226.75474609 104.80422363 227.50949219 104.60844727 228.28710938 104.40673828 C233.16780255 103.14695612 238.06410186 102.02157375 243 101 C243.70608398 100.84901855 244.41216797 100.69803711 245.13964844 100.54248047 C280.84194646 93.18453688 315.83379094 97.97527524 347 117 C351.56323918 120.0429821 355.80096491 123.47610894 360 127 C360.5676709 127.4729248 361.1353418 127.94584961 361.72021484 128.43310547 C364.50438851 130.75698301 367.2747857 133.09579431 370.02734375 135.45703125 C371.57247251 136.77881682 373.12165151 138.09700884 374.71142578 139.36474609 C376.1745662 140.53568687 377.59162212 141.76373387 379 143 C379 143.66 379 144.32 379 145 C379.70382812 145.226875 380.40765625 145.45375 381.1328125 145.6875 C384.58142178 147.26615493 387.08976754 149.49018746 389.875 152 C427.99258951 185.10613533 474.76658399 193.95999037 523.89501953 190.74511719 C535.23325788 189.78729033 546.5370933 188.4574315 557.61328125 185.80078125 C560.94982508 185.01186374 564.28991418 184.35768545 567.65771484 183.72070312 C585.82800733 180.2542155 604.08036956 176.10624142 621.5078125 169.84765625 C624 169 624 169 626 169 C626 188.8 626 208.6 626 229 C419.42 229 212.84 229 0 229 C0 153.43 0 77.86 0 0 Z " fill="#88EFF2" transform="translate(0,136)"/>
<path d="M0 0 C0.75410156 0.28359375 1.50820313 0.5671875 2.28515625 0.859375 C13.12790561 5.60200388 23.87410434 15.89227215 30 26 C30 27.32 30 28.64 30 30 C30.66 30 31.32 30 32 30 C33.0076952 31.7664657 34.00591714 33.53833823 35 35.3125 C35.556875 36.29863281 36.11375 37.28476562 36.6875 38.30078125 C38 41 38 41 38 44 C38.66 44 39.32 44 40 44 C40 52.91 40 61.82 40 71 C35.6221273 72.87623116 31.98473437 74.41391832 27.5078125 75.61328125 C26.4854248 75.88881836 25.46303711 76.16435547 24.40966797 76.44824219 C23.32572754 76.73344727 22.24178711 77.01865234 21.125 77.3125 C19.98820801 77.61446289 18.85141602 77.91642578 17.68017578 78.22753906 C-6.56815496 84.61660124 -30.49330559 89.7957069 -55.40893555 92.68530273 C-57.52388098 92.94217305 -59.63249155 93.25075889 -61.73828125 93.57421875 C-68.33982164 94.39751333 -75.04452895 94.19754383 -81.6875 94.1875 C-82.42032196 94.18689575 -83.15314392 94.1862915 -83.90817261 94.18566895 C-101.7757803 94.14571248 -118.77253119 93.01960195 -136 88 C-135.29822123 84.76513406 -134.63523506 83.10818805 -132 81 C-131.34 81 -130.68 81 -130 81 C-130 80.34 -130 79.68 -130 79 C-128.6015625 77.58984375 -128.6015625 77.58984375 -126.625 75.9375 C-125.51705078 74.99390625 -125.51705078 74.99390625 -124.38671875 74.03125 C-123.59910156 73.3609375 -122.81148438 72.690625 -122 72 C-116.16089599 66.8460448 -110.44024577 61.56700756 -104.75 56.25 C-104.11280029 55.65477539 -103.47560059 55.05955078 -102.8190918 54.44628906 C-99.64487141 51.47895306 -96.4755053 48.50663059 -93.3125 45.52734375 C-87.24708507 39.83075489 -81.12937099 34.30127768 -74.625 29.1015625 C-72.8773821 27.70242793 -71.14787122 26.28036685 -69.4375 24.8359375 C-58.73830757 15.8244153 -47.23556797 6.8651726 -34 2 C-32.97519531 1.61070312 -31.95039062 1.22140625 -30.89453125 0.8203125 C-20.86564357 -2.65445145 -10.12250533 -3.82903622 0 0 Z " fill="#4CB7C5" transform="translate(586,234)"/>
<path d="M0 0 C0.8034082 0.19867676 1.60681641 0.39735352 2.43457031 0.60205078 C19.31022708 4.92955785 33.83985976 11.91626377 48 22 C45.32219069 25.41078631 42.2022762 26.03268864 38.125 27.1875 C23.78762611 31.41904547 9.95516676 37.17411579 -3.8984375 42.7578125 C-7.57920338 44.23197314 -11.27956011 45.62931162 -15 47 C-16.175625 47.474375 -17.35125 47.94875 -18.5625 48.4375 C-43.41589255 57.69660703 -71.1455113 59.73778791 -95.9765625 49.4375 C-105.20765112 45.04855864 -112.67374944 39.06506515 -120 32 C-120.74894531 31.30261719 -121.49789062 30.60523438 -122.26953125 29.88671875 C-124 28 -124 28 -124.25 25.5 C-122.29900501 21.59801002 -119.01986945 20.38277464 -115 19 C-112 18.75 -112 18.75 -110 19 C-110 18.34 -110 17.68 -110 17 C-108.00932824 15.97776315 -106.01074697 14.98190173 -104 14 C-103.23429687 13.62488281 -102.46859375 13.24976563 -101.6796875 12.86328125 C-93.98767104 9.22392421 -86.08747435 6.59535926 -78 4 C-77.30656494 3.75628662 -76.61312988 3.51257324 -75.89868164 3.26147461 C-52.18248033 -5.01684674 -24.3583282 -6.03804438 0 0 Z " fill="#4BB7C5" transform="translate(163,222)"/>
<path d="M0 0 C4.55893309 0.77616244 8.46168573 2.35217886 12.6953125 4.16015625 C15.06095678 5.17119115 15.06095678 5.17119115 18 5 C17.67 5.66 17.34 6.32 17 7 C19.97 7.495 19.97 7.495 23 8 C23 8.33 23 8.66 23 9 C16.93350424 8.51928438 12.41574853 7.15614116 7 4.4375 C6.32066406 4.10814453 5.64132812 3.77878906 4.94140625 3.43945312 C3.28921371 2.63662717 1.64384516 1.81978216 0 1 C0 0.67 0 0.34 0 0 Z " fill="#167E96" transform="translate(425,311)"/>
<path d="M0 0 C0.33 0 0.66 0 1 0 C3.29612756 14.59681093 3.29612756 14.59681093 3 22 C1.07136286 20.15741754 0.07990406 18.65121023 -0.24755859 15.98242188 C-0.29505495 13.56572541 -0.26111304 11.16601788 -0.1875 8.75 C-0.17396484 7.90953125 -0.16042969 7.0690625 -0.14648438 6.203125 C-0.11123464 4.13514062 -0.0574302 2.06748729 0 0 Z " fill="#74D5E8" transform="translate(0,136)"/>
<path d="M0 0 C2.83560586 1.41780293 2.99358679 3.04785458 4 6 C4.36442233 7.66014616 4.69972883 9.32706064 5 11 C5.226875 11.721875 5.45375 12.44375 5.6875 13.1875 C5.790625 13.785625 5.89375 14.38375 6 15 C5.34 15.66 4.68 16.32 4 17 C3.32635339 14.91891315 2.66133202 12.8350329 2 10.75 C1.62875 9.58984375 1.2575 8.4296875 0.875 7.234375 C0 4 0 4 0 0 Z " fill="#0A7185" transform="translate(9,184)"/>
<path d="M0 0 C0.99 0.33 1.98 0.66 3 1 C1.90554162 1.86657116 0.79902219 2.71792724 -0.3125 3.5625 C-0.92738281 4.03816406 -1.54226563 4.51382813 -2.17578125 5.00390625 C-2.77777344 5.33261719 -3.37976563 5.66132813 -4 6 C-4.99 5.67 -5.98 5.34 -7 5 C-5.90554162 4.13342884 -4.79902219 3.28207276 -3.6875 2.4375 C-3.07261719 1.96183594 -2.45773437 1.48617187 -1.82421875 0.99609375 C-1.22222656 0.66738281 -0.62023437 0.33867187 0 0 Z " fill="#52BFCD" transform="translate(541,241)"/>
<path d="M0 0 C0.33 0.66 0.66 1.32 1 2 C2.65 2 4.3 2 6 2 C6.66 3.32 7.32 4.64 8 6 C4.22454612 4.90931332 1.52956528 4.0916909 -1 1 C-0.67 0.67 -0.34 0.34 0 0 Z " fill="#178192" transform="translate(415,304)"/>
</svg>
